<svg xmlns="http://www.w3.org/2000/svg" width="411" height="250" style="width:100%;height:100%;transform:translate3d(0,0,0)"><defs><clipPath id="s"><path d="M0 0h411v250H0z"/></clipPath><clipPath id="t"><path d="M0 0h1423v912H0z"/></clipPath><clipPath id="bt"><path d="M0 0h1423v912H0z"/></clipPath><clipPath id="bs"><path d="M0 0h1423v912H0z"/></clipPath><clipPath id="bn"><path d="M0 0h1423v912H0z"/></clipPath><clipPath id="bq"><path d="M0 0h1423v912H0z"/></clipPath><clipPath id="be"><path d="M0 0h1423v912H0z"/></clipPath><clipPath id="bl"><path d="M0 0h1423v912H0z"/></clipPath><clipPath id="bk"><path d="M0 0h1423v912H0z"/></clipPath><clipPath id="bj"><path d="M0 0h1423v912H0z"/></clipPath><clipPath id="bh"><path d="M0 0h1423v912H0z"/></clipPath><clipPath id="bd"><path d="M0 0h1423v912H0z"/></clipPath><clipPath id="bc"><path d="M0 0h1423v912H0z"/></clipPath><clipPath id="bb"><path d="M0 0h1423v912H0z"/></clipPath><clipPath id="ba"><path d="M0 0h1423v912H0z"/></clipPath><clipPath id="aV"><path d="M0 0h1423v912H0z"/></clipPath><clipPath id="aY"><path d="M0 0h1423v912H0z"/></clipPath><clipPath id="aK"><path d="M0 0h1423v1010H0z"/></clipPath><clipPath id="aU"><path d="M0 0h1423v912H0z"/></clipPath><clipPath id="aT"><path d="M0 0h1423v912H0z"/></clipPath><clipPath id="aS"><path d="M0 0h101v133H0z"/></clipPath><clipPath id="aN"><path d="M0 0h1423v912H0z"/></clipPath><clipPath id="aC"><path d="M0 0h1423v912H0z"/></clipPath><clipPath id="aJ"><path d="M0 0h101v133H0z"/></clipPath><clipPath id="aI"><path d="M0 0h101v133H0z"/></clipPath><clipPath id="aF"><path d="M0 0h1423v912H0z"/></clipPath><clipPath id="ar"><path d="M0 0h1423v912H0z"/></clipPath><clipPath id="aB"><path d="M0 0h1423v912H0z"/></clipPath><clipPath id="aA"><path d="M0 0h1423v912H0z"/></clipPath><clipPath id="az"><path d="M0 0h101v133H0z"/></clipPath><clipPath id="au"><path d="M0 0h1423v912H0z"/></clipPath><clipPath id="ai"><path d="M0 0h1423v912H0z"/></clipPath><clipPath id="aq"><path d="M0 0h101v133H0z"/></clipPath><clipPath id="ap"><path d="M0 0h101v133H0z"/></clipPath><clipPath id="al"><path d="M0 0h1423v912H0z"/></clipPath><clipPath id="X"><path d="M0 0h1423v912H0z"/></clipPath><clipPath id="ah"><path d="M0 0h1423v912H0z"/></clipPath><clipPath id="ag"><path d="M0 0h1423v912H0z"/></clipPath><clipPath id="af"><path d="M0 0h101v133H0z"/></clipPath><clipPath id="aa"><path d="M0 0h1423v912H0z"/></clipPath><clipPath id="O"><path d="M0 0h1423v912H0z"/></clipPath><clipPath id="W"><path d="M0 0h101v133H0z"/></clipPath><clipPath id="V"><path d="M0 0h101v133H0z"/></clipPath><clipPath id="R"><path d="M0 0h1423v912H0z"/></clipPath><clipPath id="D"><path d="M0 0h1423v912H0z"/></clipPath><clipPath id="N"><path d="M0 0h1423v912H0z"/></clipPath><clipPath id="M"><path d="M0 0h1423v912H0z"/></clipPath><clipPath id="L"><path d="M0 0h101v133H0z"/></clipPath><clipPath id="G"><path d="M0 0h1423v912H0z"/></clipPath><clipPath id="u"><path d="M0 0h1423v912H0z"/></clipPath><clipPath id="C"><path d="M0 0h101v133H0z"/></clipPath><clipPath id="B"><path d="M0 0h101v133H0z"/></clipPath><clipPath id="x"><path d="M0 0h1423v912H0z"/></clipPath><linearGradient id="br" spreadMethod="pad" gradientUnits="userSpaceOnUse"><stop/><stop/><stop/></linearGradient><linearGradient id="bo" spreadMethod="pad" gradientUnits="userSpaceOnUse"><stop/><stop/><stop/></linearGradient><linearGradient id="a" spreadMethod="pad" gradientUnits="userSpaceOnUse"><stop stop-color="#FFF"/><stop stop-color="#FFF"/><stop stop-color="#FFF"/><stop stop-color="#FFF"/><stop stop-color="#FFF"/></linearGradient><linearGradient id="bi" spreadMethod="pad" gradientUnits="userSpaceOnUse"><stop/><stop/><stop/></linearGradient><linearGradient id="bf" spreadMethod="pad" gradientUnits="userSpaceOnUse"><stop/><stop/><stop/></linearGradient><linearGradient id="b" spreadMethod="pad" gradientUnits="userSpaceOnUse"><stop stop-color="#FFF"/><stop stop-color="#FFF"/><stop stop-color="#FFF"/><stop stop-color="#FFF"/><stop stop-color="#FFF"/></linearGradient><linearGradient id="aZ" spreadMethod="pad" gradientUnits="userSpaceOnUse" x1="4.609" y1="-49.207" x2="5.831" y2="35.679"><stop offset="0%" stop-color="#C1EFF4"/><stop offset="59%" stop-color="#E0F7F9"/><stop offset="100%" stop-color="#FFF"/></linearGradient><linearGradient id="aW" spreadMethod="pad" gradientUnits="userSpaceOnUse" x1="0" y1="-139" x2="-1.44" y2="88.675"><stop offset="0%" stop-color="#C1EFF4"/><stop offset="59%" stop-color="#E0F7F9"/><stop offset="100%" stop-color="#FFF"/></linearGradient><linearGradient id="c" spreadMethod="pad" gradientUnits="userSpaceOnUse" x1="0" y1="-139" x2="-1.44" y2="88.675"><stop stop-color="#FFF" offset="0%"/><stop stop-color="#FFF" offset="16%"/><stop stop-color="#FFF" offset="38%"/><stop stop-color="#FFF" offset="59%" stop-opacity=".5"/><stop stop-color="#FFF" offset="100%" stop-opacity="0"/></linearGradient><linearGradient id="aO" spreadMethod="pad" gradientUnits="userSpaceOnUse"><stop/><stop/><stop/></linearGradient><linearGradient id="aL" spreadMethod="pad" gradientUnits="userSpaceOnUse"><stop/><stop/><stop/></linearGradient><linearGradient id="e" spreadMethod="pad" gradientUnits="userSpaceOnUse"><stop stop-color="#FFF"/><stop stop-color="#FFF"/><stop stop-color="#FFF"/><stop stop-color="#FFF"/><stop stop-color="#FFF"/></linearGradient><linearGradient id="aG" spreadMethod="pad" gradientUnits="userSpaceOnUse"><stop/><stop/><stop/></linearGradient><linearGradient id="aD" spreadMethod="pad" gradientUnits="userSpaceOnUse"><stop/><stop/><stop/></linearGradient><linearGradient id="f" spreadMethod="pad" gradientUnits="userSpaceOnUse"><stop stop-color="#FFF"/><stop stop-color="#FFF"/><stop stop-color="#FFF"/><stop stop-color="#FFF"/><stop stop-color="#FFF"/></linearGradient><linearGradient id="av" spreadMethod="pad" gradientUnits="userSpaceOnUse"><stop/><stop/><stop/></linearGradient><linearGradient id="as" spreadMethod="pad" gradientUnits="userSpaceOnUse"><stop/><stop/><stop/></linearGradient><linearGradient id="h" spreadMethod="pad" gradientUnits="userSpaceOnUse"><stop stop-color="#FFF"/><stop stop-color="#FFF"/><stop stop-color="#FFF"/><stop stop-color="#FFF"/><stop stop-color="#FFF"/></linearGradient><linearGradient id="am" spreadMethod="pad" gradientUnits="userSpaceOnUse"><stop/><stop/><stop/></linearGradient><linearGradient id="aj" spreadMethod="pad" gradientUnits="userSpaceOnUse"><stop/><stop/><stop/></linearGradient><linearGradient id="j" spreadMethod="pad" gradientUnits="userSpaceOnUse"><stop stop-color="#FFF"/><stop stop-color="#FFF"/><stop stop-color="#FFF"/><stop stop-color="#FFF"/><stop stop-color="#FFF"/></linearGradient><linearGradient id="ab" spreadMethod="pad" gradientUnits="userSpaceOnUse"><stop/><stop/><stop/></linearGradient><linearGradient id="Y" spreadMethod="pad" gradientUnits="userSpaceOnUse"><stop/><stop/><stop/></linearGradient><linearGradient id="l" spreadMethod="pad" gradientUnits="userSpaceOnUse"><stop stop-color="#FFF"/><stop stop-color="#FFF"/><stop stop-color="#FFF"/><stop stop-color="#FFF"/><stop stop-color="#FFF"/></linearGradient><linearGradient id="S" spreadMethod="pad" gradientUnits="userSpaceOnUse"><stop/><stop/><stop/></linearGradient><linearGradient id="P" spreadMethod="pad" gradientUnits="userSpaceOnUse"><stop/><stop/><stop/></linearGradient><linearGradient id="n" spreadMethod="pad" gradientUnits="userSpaceOnUse"><stop stop-color="#FFF"/><stop stop-color="#FFF"/><stop stop-color="#FFF"/><stop stop-color="#FFF"/><stop stop-color="#FFF"/></linearGradient><linearGradient id="H" spreadMethod="pad" gradientUnits="userSpaceOnUse"><stop/><stop/><stop/></linearGradient><linearGradient id="E" spreadMethod="pad" gradientUnits="userSpaceOnUse"><stop/><stop/><stop/></linearGradient><linearGradient id="p" spreadMethod="pad" gradientUnits="userSpaceOnUse"><stop stop-color="#FFF"/><stop stop-color="#FFF"/><stop stop-color="#FFF"/><stop stop-color="#FFF"/><stop stop-color="#FFF"/></linearGradient><linearGradient id="y" spreadMethod="pad" gradientUnits="userSpaceOnUse"><stop/><stop/><stop/></linearGradient><linearGradient id="v" spreadMethod="pad" gradientUnits="userSpaceOnUse"><stop/><stop/><stop/></linearGradient><linearGradient id="r" spreadMethod="pad" gradientUnits="userSpaceOnUse"><stop stop-color="#FFF"/><stop stop-color="#FFF"/><stop stop-color="#FFF"/><stop stop-color="#FFF"/><stop stop-color="#FFF"/></linearGradient><mask id="bp"/><mask id="bm"/><mask id="bg"/><mask id="aX"><path fill="url(#c)" d="M231.07 71.907 189.768-30.139l-66.976-42.419-45.211 25.116-86.935-16.336-67.11 29.732-70.068-1.188-47.7 22.955-36.838 84.837 462.14-.651z"/></mask><mask id="aR" mask-type="alpha"><g filter="url(#d)"/></mask><mask id="aP"/><mask id="aQ"/><mask id="aM"/><mask id="aH"><path fill="#fff" d="M0 0h411v250H0V0m-38.296 69.829-.067 58.19 116.402-1.603s.375-58.186.067-58.19C37.822 91.942-38.296 69.829-38.296 69.829"/></mask><mask id="aE"/><mask id="ay" mask-type="alpha"><g filter="url(#g)"/></mask><mask id="aw"/><mask id="ax"/><mask id="at"/><mask id="an"><path fill="#fff" d="M0 0h411v250H0V0m-38.296 69.829-.067 58.19 116.402-1.603s.375-58.186.067-58.19C37.822 91.942-38.296 69.829-38.296 69.829"/></mask><mask id="ao" mask-type="alpha"><g filter="url(#i)"/></mask><mask id="ak"/><mask id="ae" mask-type="alpha"><g filter="url(#k)"/></mask><mask id="ac"/><mask id="ad"/><mask id="Z"/><mask id="T"><path fill="#fff" d="M0 0h411v250H0V0m-38.296 69.829-.067 58.19 116.402-1.603s.375-58.186.067-58.19C37.822 91.942-38.296 69.829-38.296 69.829"/></mask><mask id="U" mask-type="alpha"><g filter="url(#m)"/></mask><mask id="Q"/><mask id="K" mask-type="alpha"><g filter="url(#o)"/></mask><mask id="I"/><mask id="J"/><mask id="F"/><mask id="z"><path fill="#fff" d="M0 0h411v250H0V0m-38.296 69.829-.067 58.19 116.402-1.603s.375-58.186.067-58.19C37.822 91.942-38.296 69.829-38.296 69.829"/></mask><mask id="A" mask-type="alpha"><g filter="url(#q)"/></mask><mask id="w"/><filter id="d" filterUnits="objectBoundingBox" x="0%" y="0%" width="100%" height="100%"><feComponentTransfer in="SourceGraphic"><feFuncA type="table" tableValues="1.0 0.0"/></feComponentTransfer></filter><filter id="g" filterUnits="objectBoundingBox" x="0%" y="0%" width="100%" height="100%"><feComponentTransfer in="SourceGraphic"><feFuncA type="table" tableValues="1.0 0.0"/></feComponentTransfer></filter><filter id="i" filterUnits="objectBoundingBox" x="0%" y="0%" width="100%" height="100%"><feComponentTransfer in="SourceGraphic"><feFuncA type="table" tableValues="1.0 0.0"/></feComponentTransfer></filter><filter id="k" filterUnits="objectBoundingBox" x="0%" y="0%" width="100%" height="100%"><feComponentTransfer in="SourceGraphic"><feFuncA type="table" tableValues="1.0 0.0"/></feComponentTransfer></filter><filter id="m" filterUnits="objectBoundingBox" x="0%" y="0%" width="100%" height="100%"><feComponentTransfer in="SourceGraphic"><feFuncA type="table" tableValues="1.0 0.0"/></feComponentTransfer></filter><filter id="o" filterUnits="objectBoundingBox" x="0%" y="0%" width="100%" height="100%"><feComponentTransfer in="SourceGraphic"><feFuncA type="table" tableValues="1.0 0.0"/></feComponentTransfer></filter><filter id="q" filterUnits="objectBoundingBox" x="0%" y="0%" width="100%" height="100%"><feComponentTransfer in="SourceGraphic"><feFuncA type="table" tableValues="1.0 0.0"/></feComponentTransfer></filter></defs><g clip-path="url(#s)"><g clip-path="url(#t)" transform="matrix(.4 0 0 .4 -64.6 -95.4)" style="display:block"><g clip-path="url(#aV)" style="display:block"><path fill="url(#aW)" mask="url(#aX)" d="M231.07 71.907 189.768-30.139l-66.976-42.419-45.211 25.116-86.935-16.336-67.11 29.732-70.068-1.188-47.7 22.955-36.838 84.837 462.14-.651z" transform="translate(828.648 728.517)" style="display:block"/><g style="display:block"><path fill="#B2EBF2" d="M694.696 793.645a1.5 1.5 0 0 1-1.018-2.601l34.797-32.138 71.056-3.999 43.122 19.124a1.5 1.5 0 1 1-1.217 2.742l-42.46-18.831-69.257 3.898-34.005 31.407a1.499 1.499 0 0 1-1.018.398zM627.719 811.506a1.502 1.502 0 0 1-1.408-2.021l24.904-67.357 41.685-1.688 28.603-30.804a1.5 1.5 0 1 1 2.198 2.042l-29.443 31.708-40.922 1.659-24.211 65.482a1.5 1.5 0 0 1-1.406.979zM1001.672 792.529a1.5 1.5 0 0 1-1.449-1.116l-15.497-58.668-33.082-25.363a1.5 1.5 0 1 1 1.826-2.381l33.894 25.987 15.759 59.658a1.5 1.5 0 0 1-1.451 1.883z"/></g><g style="display:block"><path fill="#26C6DA" d="M854.383 620.762c-12.45-11.704-27.999-25.752-40.294-35.043-8.195-6.192-14.945-10.271-18.369-10.131-8.132.332-20.013 4.808-30.725 9.674-7.301 3.316-14.059 6.814-18.716 9.302-9.632 5.148-22.838 15.628-29.536 28.466-6.23 11.941-16.568 31.6-16.568 31.6-.113.361-.242.715-.38 1.064a16.353 16.353 0 0 1-13.972 10.329l-6.111.529a13.347 13.347 0 0 0-10.133 6.168l-.86 1.364a13.343 13.343 0 0 0 11.13 20.468l75.127.85 7.754-28.112 1.127-4.08.261-.954 2.765-10.017 24.066-2.317 85.142-8.195s-9.32-9.321-21.708-20.965z"/><path fill="#8BE5EE" d="m764.995 585.262 36.863-3.535 12.231 3.992M750.019 674.486c-6.186-1.578-8.382-8.404-8.309-14.213-2.269 5.848-6.931 10.749-12.911 10.097-5.979-.654-10.769-7.176-9.134-12.964-3.021 4.491-8.124 8.724-13.325 7.224-3.127-.903-5.413-3.8-6.219-6.954-.153-.596-.251-1.275-.326-1.982a16.353 16.353 0 0 1-13.973 10.329l-6.11.529a13.348 13.348 0 0 0-10.133 6.168l-.862 1.365a13.343 13.343 0 0 0 11.131 20.467l75.127.85 7.755-28.111c-2.274 4.677-7.552 8.511-12.711 7.195zM763.856 663.21l.262-.954-.23.106c.01.281-.013.565-.032.848z"/><path fill="#26C6DA" d="m814.09 585.719-12.231-3.991-36.865 3.535c-7.301 3.316-14.058 6.813-18.716 9.301-9.631 5.148-22.836 15.628-29.534 28.466-6.23 11.941-16.568 31.6-16.568 31.6-.113.361-.242.715-.38 1.064.074.707.172 1.385.324 1.982.807 3.153 3.094 6.051 6.221 6.953 5.201 1.5 10.303-2.732 13.323-7.223-1.635 5.788 3.157 12.311 9.137 12.964 5.979.653 10.641-4.25 12.91-10.097-.073 5.808 2.123 12.634 8.309 14.213 5.159 1.316 10.436-2.518 12.711-7.196l1.125-4.08c.018-.283.042-.567.032-.847l.231-.106 2.763-10.017 24.068-2.318 63.432-29.16c-12.45-11.704-27.997-25.752-40.292-35.043z"/><path fill="#47DAEA" d="M719.388 648.379a2.002 2.002 0 0 1-1.854-2.753l7.174-17.675a2 2 0 0 1 3.707 1.504l-7.174 17.675a2 2 0 0 1-1.853 1.249zM741.579 640.458a2 2 0 0 1-1.848-2.764l7.443-18.019a1.999 1.999 0 1 1 3.697 1.528l-7.442 18.018a2.002 2.002 0 0 1-1.85 1.237zM750.448 658.704a2.001 2.001 0 0 1-1.828-2.81l7.563-17.115a2 2 0 0 1 3.659 1.617l-7.564 17.116a2 2 0 0 1-1.83 1.192z"/><path fill="#1BC1DC" d="M692.138 695.414c-4.267 0-12.703-2.582-14.095-12.357-1.405-9.873 7.086-14.422 11.773-15.448a2.038 2.038 0 0 1 2.417 1.551 2.03 2.03 0 0 1-1.55 2.417c-.397.089-9.843 2.316-8.62 10.906 1.248 8.77 9.716 8.871 10.075 8.871a2.03 2.03 0 0 1 0 4.06zM712.232 695.414c-4.267 0-12.703-2.582-14.095-12.357-1.405-9.873 7.086-14.422 11.773-15.448a2.038 2.038 0 0 1 2.417 1.551 2.03 2.03 0 0 1-1.55 2.417c-.397.089-9.843 2.316-8.62 10.906 1.237 8.695 9.722 8.869 10.084 8.871 1.117.01 2.021.92 2.016 2.039a2.026 2.026 0 0 1-2.025 2.021z"/></g><g style="display:block"><path fill="#26C6DA" d="M802.525 552.516c-3.154-5.172-12.71-8.114-22.442-6.777-7.957 1.092-19.517 5.686-29.815 11.206-5.565 2.983-18.636 9.752-28.4 15.522-10.881 6.43-18.998 23.678-8.324 30.135 26.948 16.303 65.608-16.32 78.6-26.013 8.53-6.363 15.32-15.973 10.38-24.073z"/><path fill="#47DAEA" d="M763.655 564.173a2 2 0 0 1-1.071-3.703l13.86-8.524a1.998 1.998 0 0 1 2.751.656c.578.94.287 2.172-.655 2.75l-13.86 8.524c-.32.197-.674.293-1.025.297z"/><path fill="#0097A7" d="M732.4 608.795a37.266 37.266 0 0 1-3.8-.154 1.501 1.501 0 0 1 .273-2.988c4.816.439 9.425-.127 13.691-1.685 13.356-4.878 22.8-12.232 22.894-12.306a1.5 1.5 0 1 1 1.854 2.359c-.397.312-9.891 7.714-23.719 12.765-3.545 1.295-7.297 1.966-11.192 2.009z"/></g><g style="display:block"><path fill="#26C6DA" d="M927.324 678.16c26.532-11.003 37.237-52.56 25.155-79.344-9.651-21.393-47.542-38.554-76.465-46.92-28.923-8.368-56.479-16.061-80.768.444-16.958 11.523-37.99 47.222-28.515 72.315 10.371 27.468 38.202 48.143 60.878 54.594 27.838 7.919 73.523 9.774 99.715-1.088z"/><path fill="#0097A7" d="M783.752 649.97c-.21.002-.425-.04-.63-.131-8.716-3.907-15.675-13.96-18.62-26.89-6.408-28.144 12.829-56.322 27.322-68.395a1.5 1.5 0 0 1 1.92 2.305c-13.925 11.6-32.425 38.596-26.317 65.423 2.112 9.279 7.668 20.67 16.923 24.82a1.5 1.5 0 0 1-.598 2.868z"/><path fill="#47DAEA" d="M802.876 578.257a1.998 1.998 0 0 1-1.722-3.05l6.58-10.676a2 2 0 0 1 3.407 2.1l-6.582 10.676a1.998 1.998 0 0 1-1.683.95zM822.623 597.578a2 2 0 0 1-1.82-2.874l6.551-13.468a2.002 2.002 0 0 1 2.674-.925 2.002 2.002 0 0 1 .924 2.675l-6.55 13.467a1.998 1.998 0 0 1-1.779 1.125zM846.284 606.97a2 2 0 0 1-1.821-2.87l7.528-15.592a2.001 2.001 0 0 1 3.603 1.739l-7.528 15.593a2.003 2.003 0 0 1-1.782 1.13zM878.568 609.13a2 2 0 0 1-1.908-2.668l4.333-12.212a2 2 0 0 1 3.77 1.338l-4.332 12.211a2.002 2.002 0 0 1-1.863 1.332z"/></g><g style="display:block"><path fill="#26C6DA" d="M940.161 630.648a33.768 33.768 0 0 0-6.148-7.915 33.623 33.623 0 0 0-11.341-7.135 33.523 33.523 0 0 0-12.023-2.142l-15.581.085-76.219 9.458h-.002l-.245.03s-5.647.796-13.219 2.627l-.325.079-.805.199-.365.091c-.291.073-.583.148-.878.225-.092.023-.182.045-.275.07-.386.1-.774.203-1.167.308l-.229.062c-.315.085-.631.172-.949.26l-.387.108c-.286.08-.573.161-.862.244l-.367.106c-.371.107-.743.217-1.117.329l-.102.03a89.43 89.43 0 0 0-1.224.374l-.351.11a90.98 90.98 0 0 0-1.308.418 98.757 98.757 0 0 0-1.245.413c-.414.139-.828.281-1.242.426l-.218.078c-.34.121-.681.243-1.022.367l-.395.145c-.294.109-.587.218-.88.329l-.388.148c-.352.135-.704.273-1.055.413l-.178.071c-.407.163-.811.329-1.213.497l-.336.144a86.68 86.68 0 0 0-.882.379l-.396.174c-.294.13-.587.263-.878.397l-.321.147a70.43 70.43 0 0 0-1.174.558l-.153.076a65.267 65.267 0 0 0-1.35.684 42.34 42.34 0 0 0-.793.421l-.362.196c-.297.162-.59.327-.881.494-.071.042-.144.082-.216.124-.358.207-.709.418-1.057.631l-.269.168a47.797 47.797 0 0 0-1.102.71c-.24.16-.477.321-.71.484-.098.068-.196.135-.292.203-.322.228-.639.458-.947.693l-.077.06c-.282.215-.558.434-.83.655l-.27.225a31.344 31.344 0 0 0-1.519 1.36c-.058.057-.121.113-.178.171-.26.255-.511.513-.755.775l-.174.193a21.531 21.531 0 0 0-1.213 1.463c-.063.084-.129.169-.19.254-.203.278-.398.559-.581.843-2.107 3.277-4.98 11.188-8.032 20.907-.508 1.62-1.022 3.29-1.538 4.998a627.198 627.198 0 0 0-1.552 5.22 948.99 948.99 0 0 0-5.297 18.891 1548.543 1548.543 0 0 0-5.634 21.473c-.009.035-.022.068-.03.104-.1.38-.213.755-.336 1.125-.133.391-.279.777-.435 1.157a17.72 17.72 0 0 1-14.91 10.899l-4.244.903a15.207 15.207 0 0 0-9.263 23.644l.305.431a15.204 15.204 0 0 0 11.135 6.383l71.086-4.507a12.647 12.647 0 0 0 10.375-10.929l10.834-58.839h72.788a33.6 33.6 0 0 0 10.44-1.663l11.1-3.629 5.549-1.814a33.601 33.601 0 0 0 23.105-30.02 33.41 33.41 0 0 0-4.215-18.324z"/><path fill="#8BE5EE" d="M818.603 623.029s-39.627 5.582-49.674 21.21c-5.618 8.739-16.684 50.43-22.053 71.488a17.724 17.724 0 0 1-15.711 13.285l-4.244.904a15.205 15.205 0 0 0-9.261 23.643l.303.431a15.204 15.204 0 0 0 11.135 6.383l71.087-4.506a12.653 12.653 0 0 0 10.376-10.929l10.833-58.84h72.787c3.546 0 7.069-.56 10.441-1.662l16.65-5.443a33.6 33.6 0 0 0 23.104-30.02c1.106-19.351-14.345-35.623-33.727-35.517l-15.58.086-76.466 9.487z"/><path fill="#1BC1DC" d="M740.713 759.745c-4.267 0-12.703-2.583-14.095-12.358-1.405-9.872 7.086-14.421 11.773-15.447a2.03 2.03 0 0 1 .867 3.965c-.397.09-9.843 2.32-8.62 10.909 1.237 8.696 9.722 8.869 10.084 8.871 1.117.01 2.021.92 2.016 2.039a2.026 2.026 0 0 1-2.025 2.021zM760.807 758.628c-4.267 0-12.704-2.582-14.096-12.357-1.404-9.872 7.087-14.42 11.774-15.446a2.029 2.029 0 1 1 .867 3.965c-.397.09-9.842 2.317-8.62 10.907 1.237 8.695 9.721 8.869 10.083 8.871 1.117.01 2.021.92 2.016 2.039a2.025 2.025 0 0 1-2.024 2.021z"/><path fill="#26C6DA" d="m910.649 613.456-15.581.085-76.219 9.458-12.386 2.399c-12.52 2.94-31.097 8.829-37.534 18.84-5.618 8.739-16.685 50.431-22.052 71.489a17.905 17.905 0 0 1-.805 2.398c.307 1.812.864 3.518 1.792 4.952 2.611 4.036 7.194 6.652 12.083 5.615 4.888-1.036 10.408-6.137 11.223-11.067-.052 7.431-.007 13.097 7.365 14.207 10.015 1.509 12.368-9.56 13.789-12.613.257 3.155.529 6.367 1.721 9.299 1.193 2.931 3.931 5.464 6.98 6.313 3.885 1.08 8.658-.854 11.191-3.99.552-.684.977-1.415 1.34-2.173l7.838-42.569h72.787c3.546 0 7.07-.562 10.441-1.664l16.65-5.443a33.602 33.602 0 0 0 23.105-30.019c1.105-19.352-14.346-35.622-33.728-35.517z"/><path fill="#47DAEA" d="M799.109 716.516a1.997 1.997 0 0 1-1.945-2.471l4.186-17.256a2 2 0 0 1 3.887.944l-4.187 17.256a1.998 1.998 0 0 1-1.941 1.527zM785.714 696.702a1.997 1.997 0 0 1-1.945-2.472l4.186-17.256a2 2 0 0 1 3.887.944l-4.187 17.256a1.998 1.998 0 0 1-1.941 1.528zM782.531 663.112a2 2 0 0 1-1.956-2.425l1.135-5.222a13.366 13.366 0 0 1 6.82-8.994l4.394-2.326a2 2 0 0 1 1.871 3.535l-4.394 2.327a9.377 9.377 0 0 0-4.783 6.307l-1.135 5.223a2 2 0 0 1-1.952 1.575zM762.83 714.283a1.997 1.997 0 0 1-1.945-2.472l4.186-17.255a2 2 0 0 1 3.887.944l-4.187 17.255a1.998 1.998 0 0 1-1.941 1.528zM828.408 677.725a2 2 0 0 1-.085-3.998l19.256-.837c1.094-.033 2.037.808 2.085 1.911a2 2 0 0 1-1.911 2.085l-19.256.837-.089.002zM810.124 667.44a2 2 0 0 1-1.479-3.344l2.407-2.651c2.816-3.101 6.666-5 10.841-5.348l3.242-.27a1.993 1.993 0 0 1 2.159 1.827 2 2 0 0 1-1.826 2.159l-3.242.271a12.453 12.453 0 0 0-8.213 4.05l-2.409 2.652a1.99 1.99 0 0 1-1.48.654zM907.976 662.138a2 2 0 0 1-.3-3.976l19.051-2.921a2 2 0 1 1 .605 3.953l-19.05 2.922a2.11 2.11 0 0 1-.306.022zM886.767 678.557a2 2 0 0 1-.301-3.976l19.051-2.922a2 2 0 1 1 .607 3.953l-19.05 2.923a2.134 2.134 0 0 1-.307.022z"/><path fill="#0097A7" d="M752.744 696.9a1.501 1.501 0 0 1-1.436-1.937c.782-2.558 1.572-5.179 2.369-7.822 5.509-18.273 11.207-37.169 16.831-44.901 5.458-7.506 15.215-13.274 29.001-17.143 10.162-2.852 18.623-3.536 18.978-3.563.813-.076 1.546.553 1.61 1.378a1.498 1.498 0 0 1-1.376 1.612c-.336.026-33.673 2.823-45.788 19.48-5.324 7.322-10.947 25.969-16.383 44.002-.798 2.648-1.59 5.272-2.372 7.833a1.5 1.5 0 0 1-1.434 1.061z"/></g><path fill="#8BE5EE" d="M-5.985 2.128c.586-3.186 1.44-12.146 7.016-11.87 5.772.285 5.488 6.058 5.564 8.848.076 2.79-1.288 8.724-1.288 8.724l-12.11 2.188s.231-4.704.818-7.89z" transform="rotate(-.625 49747.035 -66334.293)" style="display:block"/><g clip-path="url(#aY)" transform="translate(0 5)" style="display:block"><path fill="#8BE5EE" d="M.026-24.413c-66.741 0-121.652 11.53-128.42 26.32 21.872 13.261 71.09 22.506 128.309 22.506 57.369 0 106.693-9.294 128.479-22.611C121.414-12.937 66.609-24.413.026-24.413z" transform="translate(425.585 811.099)" style="display:block"/><path fill="url(#aZ)" d="M130.833-2.533a50.379 50.379 0 0 0-3-1.917c-7.826-4.641-19.015-8.778-32.722-12.189-.988-.246-1.986-.49-3-.728a264.494 264.494 0 0 0-9.278-1.999c-.99-.196-1.99-.388-3-.577C57.166-24.183 29.66-26.669 0-26.669c-15.32 0-30.063.665-43.865 1.89-1.006.089-2.005.183-3 .278a420.253 420.253 0 0 0-11.162 1.213c-22.834 2.803-42.396 7.209-56.721 12.685a118.68 118.68 0 0 0-3 1.197c-14.325 5.944-22.654 13.039-22.654 20.659 0 5.49 4.324 10.706 12.093 15.416C-121.541 11.879-66.629.348.112.348c66.583 0 121.388 11.475 128.367 26.215 7.662-4.683 11.923-9.861 11.923-15.31 0-4.863-3.393-9.513-9.569-13.786z" transform="translate(425.5 786.338)" style="display:block"/><g style="display:block"><path fill="#ADF2F2" d="M506.832 791.224a1.5 1.5 0 0 0 1.5-1.5v-22.753c-.99-.196-1.99-.388-3-.577v23.33a1.5 1.5 0 0 0 1.5 1.5zM368.972 781.945a1.5 1.5 0 0 0 1.5-1.5v-17.752c-1.006.116-2.006.234-3 .356v17.396a1.5 1.5 0 0 0 1.5 1.5zM309.251 798.689a1.5 1.5 0 0 0 1.5-1.5v-21.454c-1.028.393-2.026.792-3 1.196v20.258a1.5 1.5 0 0 0 1.5 1.5zM380.134 774.689a1.5 1.5 0 0 0 1.5-1.5v-11.63c-1.005.089-2.005.181-3 .276v11.354a1.5 1.5 0 0 0 1.5 1.5zM519.11 786.968a1.5 1.5 0 0 0 1.5-1.5v-15.77c-.988-.246-1.986-.489-3-.728v16.498a1.5 1.5 0 0 0 1.5 1.5zM554.832 804.27a1.5 1.5 0 0 0 1.5-1.5v-18.966a50.888 50.888 0 0 0-3-1.916v20.882a1.5 1.5 0 0 0 1.5 1.5z"/></g></g><path stroke="#0097A7" stroke-width="3" d="m-243.5-116-9 498" fill="none" transform="rotate(-.813 30071.865 -49118.273)" style="display:block"/><path stroke="#0097A7" stroke-width="3" d="m53.085 120.753-300.2-296.819" fill="none" transform="rotate(-2.625 10808.238 -15237.485)" style="display:block"/><path stroke-linecap="round" stroke="#F7CB4D" stroke-width="15" d="M189.5 237 4.581 70.018-243.5-154" fill="none" transform="rotate(-1.622 16544.286 -24646.333)" style="display:block"/><path fill="#F09300" d="M0-19.914c11.018 0 19.963 8.923 19.963 19.914 0 10.99-8.945 19.914-19.963 19.914S-19.963 10.991-19.963 0c0-10.99 8.945-19.914 19.963-19.914z" transform="matrix(1.2371 -.0351 .03545 1.2495 786.43 590.95)" style="display:block"/><g style="display:block"><path fill="#8BE5EE" d="M743.735 547.993c-.001-.007-.004-.014-.007-.021-.097-.412-.2-.811-.309-1.199-.015-.057-.032-.11-.048-.167-.1-.347-.203-.687-.312-1.015-.009-.027-.02-.052-.028-.079-.121-.358-.247-.705-.38-1.04 0-.003 0-.004-.002-.005a18.7 18.7 0 0 0-.442-1.024c-.79-1.685-1.777-3.064-3.036-4.151-.298-.26-.619-.496-.949-.723a11.643 11.643 0 0 0-1.3-.779h-.003c-.37-.188-.761-.355-1.166-.512-.1-.04-.203-.078-.305-.116a15.65 15.65 0 0 0-1.292-.412c-2.034-.548-4.23.143-6.178 1.22-3.247 1.795-5.811 4.665-5.811 4.665.042-2.366-.18-5.895-1.441-8.787-.14-.322-.294-.635-.461-.938-1-1.82-2.5-3.268-4.725-3.812a4.527 4.527 0 0 0-.814-.122c-1.328-.071-2.533.5-3.585 1.562-.21.213-.414.445-.612.695a11.71 11.71 0 0 0-1.109 1.714c-.171.32-.336.654-.494 1.004-.946 2.098-1.635 4.725-2.02 7.614-.384 2.888-.329 7.126-.206 10.283a138.05 138.05 0 0 0 .172 3.353l.03.488c.02.267.029.414.029.414l34.165 16.094c1.671-5.56 2.873-12.445 3.06-17.904.018-.496.027-.98.027-1.451 0-1.882-.14-3.543-.448-4.85z"/><path fill="#8BE5EE" d="M743.735 547.993c-.001-.007-.004-.014-.007-.021-.097-.412-.2-.811-.309-1.199-.015-.057-.032-.11-.048-.167-.1-.347-.203-.687-.312-1.015-.009-.027-.02-.052-.028-.079-.121-.358-.247-.705-.38-1.04 0-.003 0-.004-.002-.005a18.7 18.7 0 0 0-.442-1.024l-10.281 8.86c-.477.41-1.06.614-1.644.62a2.564 2.564 0 0 1-1.702-4.505l10.591-9.126c-.298-.26-.619-.496-.949-.723a11.643 11.643 0 0 0-1.3-.779h-.003c-.37-.188-.761-.355-1.166-.512-.1-.04-.203-.078-.305-.116a15.65 15.65 0 0 0-1.292-.412c-2.034-.548-4.23.143-6.178 1.22-3.247 1.795-5.811 4.665-5.811 4.665.042-2.366-.18-5.895-1.441-8.787-.14-.322-.294-.635-.461-.938-1-1.82-2.5-3.268-4.725-3.812a4.527 4.527 0 0 0-.814-.122c-1.328-.071-2.533.5-3.585 1.562-.21.213-.414.445-.612.695a11.71 11.71 0 0 0-1.109 1.714c-.171.32-.336.654-.494 1.004-.946 2.098-1.635 4.725-2.02 7.614-.384 2.888-.329 7.126-.206 10.283a138.05 138.05 0 0 0 .172 3.353l.03.488c.02.267.029.414.029.414l34.165 16.094c1.671-5.56 2.873-12.445 3.06-17.904.018-.496.027-.98.027-1.451 0-1.882-.14-3.543-.448-4.85z"/><path fill="#0097A7" d="M728.312 552.034c.513.597 1.24.899 1.97.89a2.554 2.554 0 0 0 1.645-.62l10.28-8.861c-.79-1.685-1.778-3.064-3.036-4.152l-10.59 9.128a2.564 2.564 0 0 0-.27 3.615z"/><path fill="#8BE5EE" d="M743.735 547.998c-.001-.007-.004-.014-.007-.021-.097-.412-.2-.811-.309-1.199-.015-.058-.032-.11-.048-.168-.1-.346-.203-.687-.312-1.014-.009-.027-.02-.053-.028-.08-.121-.357-.247-.704-.38-1.04 0-.002 0-.003-.002-.005-.14-.352-.287-.694-.442-1.023-.791-1.685-1.777-3.065-3.036-4.152-.298-.259-.619-.495-.948-.722a11.679 11.679 0 0 0-1.304-.78c-.37-.188-.761-.354-1.166-.51a15.65 15.65 0 0 0-1.597-.529c-2.034-.548-4.23.143-6.178 1.22-3.247 1.795-5.811 4.665-5.811 4.665.042-2.366-.18-5.895-1.441-8.787-.14-.322-.294-.635-.461-.938-1-1.82-2.5-3.268-4.725-3.812a4.527 4.527 0 0 0-.814-.122c-1.328-.071-2.533.5-3.585 1.562-.21.213-.414.445-.612.695a11.71 11.71 0 0 0-1.109 1.714 16.01 16.01 0 0 0-.494 1.004c-.945 2.097-1.635 4.724-2.02 7.614-.384 2.887-.33 7.125-.206 10.282a137.774 137.774 0 0 0 .172 3.354l.03.487.029.415 34.165 16.094c1.671-5.56 2.873-12.445 3.06-17.904.018-.496.027-.98.027-1.451 0-1.882-.141-3.543-.448-4.85z"/><path fill="#8BE5EE" d="M743.735 547.998c-.001-.007-.004-.014-.007-.021-.097-.412-.2-.811-.309-1.199-.015-.058-.032-.11-.048-.168-.1-.346-.203-.687-.312-1.014-.009-.027-.02-.053-.028-.08-.121-.357-.247-.704-.38-1.04 0-.002 0-.003-.002-.005-.14-.352-.287-.694-.442-1.023l-10.28 8.86c-.477.41-1.061.614-1.645.62a2.564 2.564 0 0 1-1.702-4.505l10.591-9.127c-.298-.259-.619-.495-.948-.722a11.679 11.679 0 0 0-1.304-.78c-.37-.188-.761-.354-1.166-.51a15.65 15.65 0 0 0-1.597-.529c-2.034-.548-4.23.143-6.178 1.22-3.247 1.795-5.811 4.665-5.811 4.665v-.001c.042-2.365-.18-5.894-1.441-8.786-.14-.322-.294-.635-.461-.938-1-1.82-2.5-3.268-4.725-3.812a4.527 4.527 0 0 0-.814-.122c-1.328-.071-2.533.5-3.585 1.562-.21.213-.414.445-.612.695a11.71 11.71 0 0 0-1.109 1.714 16.01 16.01 0 0 0-.494 1.004c-.945 2.097-1.635 4.724-2.02 7.614-.384 2.887-.33 7.125-.206 10.282a137.774 137.774 0 0 0 .172 3.354l.03.487.029.415 34.165 16.094c1.671-5.56 2.873-12.445 3.06-17.904.018-.496.027-.98.027-1.451 0-1.882-.141-3.543-.448-4.85z"/><path fill="#0097A7" d="M728.312 552.04c.513.596 1.24.898 1.97.89a2.554 2.554 0 0 0 1.645-.621l10.281-8.861c-.79-1.685-1.779-3.065-3.037-4.152l-10.59 9.128a2.564 2.564 0 0 0-.27 3.615z"/><path fill="#26C6DA" d="M706.928 556.146s-5.845 14.495-5.422 28.248c.425 13.806 19.198 28.59 35.284 15.552 5.056-4.1 3.603-24.015 3.603-24.015l.328-4.097-33.793-15.688z"/><path fill="#47DAEA" d="M711.588 587.455a2 2 0 0 1-2.02-2.136l1.204-17.596a2 2 0 0 1 3.992.273l-1.204 17.595a2 2 0 0 1-1.972 1.864zM723.428 598.21a2 2 0 0 1-2.013-2.212l1.52-14.25a2.005 2.005 0 0 1 2.199-1.776 2 2 0 0 1 1.778 2.2l-1.52 14.25a2 2 0 0 1-1.964 1.788z"/></g><path fill="#ADF2F2" d="M59.282 1.5H-59.282a1.5 1.5 0 1 1 0-3H59.282a1.5 1.5 0 1 1 0 3z" transform="translate(1004.845 847.827)" style="display:block"/><path fill="#0097A7" d="M66.872-56.378c1.462-1.946 2.028-3.191 2.028-3.191H-68.9l29.62 119.127h80.491L68.9-59.569s-.566 1.245-2.028 3.191z" transform="translate(976.616 789.558)" style="display:block"/><g style="display:block"><path fill="#0097A7" d="M1031.335 793.948c.268-.396.543-.783.799-1.192a1.514 1.514 0 0 1 2.61 1.534c7.115-11.407 9.264-26.836 6.107-44.226l-1.926 8.284c1.265 14.079-1.341 26.39-7.59 35.6zM1030.32 795.372l-.004.014c.165-.221.337-.434.498-.66-.158.222-.332.429-.494.646zM1033.805 795.711c-.179.263-.349.536-.532.793.184-.258.353-.53.532-.793z"/><path fill="#00ACC1" d="M917.65 746.452a1.517 1.517 0 0 1-.921 1.938l-3.342 1.187c10.026 17.062 23.655 31.825 38.375 42.515h79.319l-.765 3.295v-.001l.002-.014 8.606-37.023 1.926-8.284 4.666-20.076s-11.833 26.025-66.976 26.025-70.824-26.025-70.824-26.025l4.199 16.891 3.797-1.349a1.516 1.516 0 0 1 1.938.921zM914.428 756.982l8.73 35.11h23.608c-12.125-9.38-23.357-21.406-32.338-35.11zM1017.828 849.115l11.02-47.416-11.02 47.416z"/><path fill="#4DD0E1" d="m999.307 813.223-.347-.001c-16.649-.111-35.282-8.047-52.193-21.13h-23.609l14.178 57.024h80.492l11.022-47.417c-7.538 7.484-17.733 11.524-29.543 11.524z"/><path fill="#4DD0E1" d="m1030.316 795.387.766-3.294h-79.32c15.499 11.255 32.21 17.995 47.219 18.095.108-.004.216.001.323.001 12.994 0 23.872-5.231 31.012-14.802z"/><path fill="#0097A7" d="M914.428 756.983c8.981 13.704 20.214 25.729 32.339 35.109 16.911 13.083 35.544 21.019 52.193 21.13a1.517 1.517 0 0 1 .01-3.034h.011c-15.009-.1-31.72-6.84-47.219-18.096-14.72-10.69-28.348-25.453-38.374-42.514l3.341-1.188a1.517 1.517 0 0 0-1.017-2.859l-3.796 1.349-2.969 1.056.897 1.574a141.167 141.167 0 0 0 4.584 7.473z"/><path fill="#0097A7" d="M1034.225 792.272a1.519 1.519 0 0 0-2.091.483c-.256.41-.531.798-.799 1.194-.175.258-.341.526-.521.778-.161.226-.333.438-.498.658v.001c-7.139 9.571-18.017 14.802-31.011 14.802-.108 0-.215-.005-.324-.001h-.01a1.517 1.517 0 0 0-.011 3.034l.348.002c11.809 0 22.004-4.04 29.541-11.524a40.137 40.137 0 0 0 4.425-5.194c.183-.257.352-.53.531-.793.303-.447.613-.887.902-1.349.015-.024.023-.049.037-.074a1.514 1.514 0 0 0-.519-2.017z"/></g><g style="display:block"><path fill="#47DAEA" d="m944.47 622.81-.022-.014c13.24-19.352 5.466-31.503-4.426-36.314-8.461-4.116-20.536 1.612-28.325 7.751-.006-.007-.009-.015-.015-.022a1.5 1.5 0 0 0-2.113-.184c-13.96 11.726-27.963 17.269-44.07 17.444-26.088.285-48.862-9.658-59.857-19.638a1.498 1.498 0 0 0-2.376 1.719l-.006.007c-.342-1.3-1.811-6.015-6.368-11.84-4.906-6.273-13.962-4.33-12.864 1.361.36 1.861 1.9 3.737 3.057 4.925-2.647-2.341-8.818-7.085-14.581-6.325a8.657 8.657 0 0 0-2.825.866c-.327.166-.639.346-.942.533a12.614 12.614 0 0 0-3.504 3.213c-1.069 1.431-1.838 3.066-2.345 4.816-1.704 5.906-.442 13.112 2.27 18.121 5.275 9.75 12.485 14.454 14.533 15.65a1.498 1.498 0 0 0-.666 2.68c4.418 3.31 9.306 6.344 14.481 9.557l.959.595c12.258 7.614 44.944 18.722 76.174 18.381 33.144-.362 60.179-11.73 74.173-31.19a1.498 1.498 0 0 0-.342-2.093z"/><path fill="#8BE5EE" d="M803.266 593.553v-.001l-.006.007.006-.006zM780.972 624.257l-.513.707.017.007 1.824-2.514-1.328 1.8z"/><path fill="#26C6DA" d="M911.5 596.325c-14.523 12.196-29.129 17.962-45.967 18.145-28.744.314-51.315-10.801-61.908-20.416a1.477 1.477 0 0 1-.359-.502l-.005.007c.061.232.092.368.092.368l-21.053 28.53-1.823 2.514c.12.048.237.106.345.187 4.314 3.23 9.148 6.231 14.267 9.408l.96.596c12.43 7.722 45.257 18.249 74.557 17.93 32.18-.352 58.34-11.265 71.772-29.94a1.498 1.498 0 0 1 2.07-.356c13.24-19.352 5.467-31.503-4.425-36.314-8.461-4.116-20.536 1.612-28.326 7.75a1.5 1.5 0 0 1-.198 2.093zM803.515 610.6a2 2 0 0 1 2.626-1.053l16.987 7.267a2 2 0 1 1-1.571 3.678l-16.99-7.267a2 2 0 0 1-1.052-2.625zm30.399 31.857a2 2 0 0 1-2.55 1.222l-20.336-7.159a1.998 1.998 0 0 1-1.222-2.55 1.998 1.998 0 0 1 2.55-1.221l20.336 7.158a1.998 1.998 0 0 1 1.222 2.55zm29.08-8.533a2.24 2.24 0 0 1-.141-.003l-21.524-1.257a1.999 1.999 0 1 1 .235-3.993l21.522 1.257a2 2 0 0 1-.092 3.996zm38.185 7.142-21.237 3.71a2 2 0 0 1-.69-3.94l21.239-3.71a2 2 0 1 1 .688 3.94zm2.483-23.839-20.223 7.471a2 2 0 1 1-1.387-3.752l20.224-7.47a2 2 0 1 1 1.386 3.751zm12.154 5.17 16.788-13.526a2 2 0 1 1 2.508 3.114l-16.787 13.528a1.99 1.99 0 0 1-1.232.441 2 2 0 0 1-1.277-3.557z"/><path fill="#8BE5EE" d="m780.452 624.961.52-.703 1.328-1.8 21.052-28.53s-.031-.136-.092-.368c-.343-1.3-1.812-6.016-6.37-11.842-4.905-6.271-13.961-4.328-12.863 1.363.36 1.861 1.902 3.736 3.057 4.925-2.647-2.341-8.818-7.086-14.581-6.326l5.104 10.56a2.002 2.002 0 0 1-1.78 2.873 2 2 0 0 1-1.823-1.13l-5.268-10.903a12.614 12.614 0 0 0-3.504 3.213l5.431 13.205a2 2 0 1 1-3.7 1.522l-4.074-9.912c-1.705 5.905-.443 13.113 2.268 18.122 5.275 9.748 12.486 14.453 14.534 15.649.253-.04.515-.01.76.082z"/><path fill="#0097A7" d="M803.625 594.055c10.593 9.614 33.164 20.73 61.908 20.416 16.838-.183 31.443-5.95 45.966-18.145a1.5 1.5 0 0 0 .198-2.093c-.005-.007-.008-.015-.014-.022a1.503 1.503 0 0 0-2.114-.184c-13.96 11.727-27.963 17.269-44.068 17.444-26.089.285-48.863-9.658-59.86-19.637a1.498 1.498 0 0 0-2.376 1.718c.083.186.2.358.36.503zM870.639 656.091c33.144-.362 60.18-11.728 74.174-31.188a1.5 1.5 0 0 0-.343-2.094l-.022-.012a1.498 1.498 0 0 0-2.07.355c-13.432 18.676-39.592 29.588-71.772 29.94-29.3.319-62.127-10.207-74.557-17.93l-.96-.596c-5.12-3.176-9.952-6.176-14.266-9.407a1.443 1.443 0 0 0-.346-.188l-.018-.006-.007-.004a1.49 1.49 0 0 0-1.728.499 1.5 1.5 0 0 0 .301 2.1c4.418 3.31 9.306 6.343 14.481 9.557l.959.594c12.258 7.614 44.945 18.72 76.174 18.38zM775.83 595.112a2.001 2.001 0 0 0 1.779-2.87l-5.105-10.562a8.657 8.657 0 0 0-2.825.866c-.327.166-.639.346-.942.533l5.268 10.903a2.001 2.001 0 0 0 1.825 1.13zM768.837 602.258a1.999 1.999 0 0 0 1.826-2.761l-5.43-13.205c-1.069 1.431-1.838 3.066-2.344 4.816l4.077 9.911a1.998 1.998 0 0 0 1.871 1.239z"/><path fill="#47DAEA" d="M822.364 620.654a2 2 0 0 0 .766-3.84l-16.989-7.267a2 2 0 0 0-2.625 1.053 2 2 0 0 0 1.052 2.626l16.989 7.266c.264.112.537.165.807.162zM832.693 639.907l-20.336-7.158a1.997 1.997 0 0 0-2.55 1.222 2 2 0 0 0 1.222 2.55l20.336 7.159a2.001 2.001 0 0 0 1.328-3.773zM863.088 629.928l-21.524-1.256a2.007 2.007 0 0 0-2.114 1.878 2 2 0 0 0 1.88 2.115l21.524 1.257c.048.002.093.004.14.003a2 2 0 0 0 .094-3.997zM902.276 613.476l-20.224 7.471a2 2 0 0 0 1.387 3.753l20.224-7.47a2 2 0 0 0-1.387-3.754zM900.49 637.126l-21.237 3.711a2 2 0 0 0 .69 3.94l21.237-3.711a1.999 1.999 0 1 0-.69-3.94zM917.094 625.954a1.986 1.986 0 0 0 1.231-.441l16.788-13.527c.86-.694.996-1.953.304-2.814a2.001 2.001 0 0 0-2.813-.301l-16.787 13.527a1.999 1.999 0 0 0 1.277 3.556z"/></g><g style="display:block"><path fill="#00ACC1" d="M828.678 356.638c1.361-5.714 3.632-11.888 4.695-15.892.489-1.84-1.581-3.285-3.137-2.189-4.64 3.27-11.807 9.183-16.665 17.216a38.381 38.381 0 0 0-3.272 6.824c-.17.47-.348.935-.497 1.416-1.49 4.773-2.084 9.092-2.166 12.85-.06 2.673.142 5.055.467 7.118.447 2.843 1.129 5.075 1.69 6.57a6.264 6.264 0 0 0 3.126 3.454c2.424 1.171 6.422 3.443 11.981 1.5 5.256-1.836 7.41-4.774 9.183-7.68 1.132-1.855 1.495-4.365.192-6.105-1.073-1.434-2.066-2.624-2.945-3.893-1.204-1.739-2.193-3.625-2.87-6.482-.394-1.659-.682-3.644-.848-6.123a16.02 16.02 0 0 1-.01-1.634c.071-2.089.487-4.473 1.076-6.95z"/><path fill="#00ACC1" d="M833.373 340.746c.489-1.84-1.582-3.286-3.138-2.19-4.64 3.27-11.806 9.183-16.664 17.216l15.106.866c1.361-5.714 3.633-11.888 4.696-15.892zM827.612 365.221a16.01 16.01 0 0 1-.012-1.634l-17.301-.991c-.17.47-.347.936-.497 1.417-1.49 4.772-2.084 9.091-2.167 12.849l20.825-5.517c-.394-1.66-.681-3.646-.848-6.124zM831.33 377.826l-23.228 6.154c.447 2.844 1.129 5.075 1.69 6.57a6.264 6.264 0 0 0 3.127 3.454c2.424 1.171 6.422 3.443 11.981 1.5 5.256-1.836 7.41-4.775 9.182-7.68 1.132-1.855 1.495-4.365.193-6.105-1.073-1.434-2.066-2.624-2.945-3.893z"/><path fill="#0097A7" d="m828.678 356.637-15.108-.865a38.382 38.382 0 0 0-3.272 6.824l17.302.991c.072-2.089.49-4.473 1.078-6.95zM828.46 371.345l-20.825 5.518a39.85 39.85 0 0 0 .467 7.118l23.227-6.154c-1.204-1.739-2.192-3.625-2.87-6.482z"/><path fill="#26C6DA" d="M912.455 340.614s-18.8 25.998-46.607 25.692c-34.745-.382-63.365-1.171-90.371 29.9-33.628 38.692-29.61 86.911-17.468 110.908 14.875 29.399 41.612 52.532 85.776 66.32 41.98 13.104 92.627 15.706 124.035-10.801 28.094-23.71 51.256-85.83 27.592-128.954-16.551-30.163-56.023-36.872-69.897-53.013-14.41-16.762-13.06-40.052-13.06-40.052z"/><path fill="#00ACC1" d="M992.07 388.924c-.592-1.81-3.115-1.889-3.825-.122-1.542 3.844-3.415 10.15-5.743 15.543-1.008 2.337-2.103 4.497-3.294 6.214-.322.465-.65.908-.987 1.303-1.614 1.887-3.034 3.305-4.343 4.4-2.25 1.884-4.17 2.804-6.176 3.477-1.462.49-2.97.85-4.688 1.358-2.084.615-3.295 2.844-3.498 5.008-.318 3.387-.35 7.03 2.764 11.646 3.294 4.883 7.856 5.454 10.5 5.966a6.268 6.268 0 0 0 4.57-.9c1.344-.862 3.224-2.241 5.285-4.252a39.994 39.994 0 0 0 4.632-5.425c2.18-3.061 4.288-6.878 5.95-11.593.167-.475.303-.955.45-1.433a38.294 38.294 0 0 0 1.458-7.426c.912-9.344-1.293-18.368-3.055-23.764z"/><path fill="#00ACC1" d="M992.07 388.924c-.592-1.81-3.116-1.889-3.826-.122-1.542 3.844-3.414 10.15-5.742 15.543l12.622 8.343c.912-9.344-1.292-18.368-3.054-23.764zM963.013 421.097c-2.083.616-3.295 2.844-3.498 5.008-.318 3.387-.35 7.032 2.764 11.647 3.294 4.882 7.857 5.453 10.5 5.965a6.262 6.262 0 0 0 4.57-.9c1.346-.86 3.225-2.241 5.286-4.252l-14.933-18.826c-1.463.49-2.972.85-4.689 1.358zM979.208 410.56c-.322.464-.65.908-.987 1.302-1.614 1.887-3.034 3.306-4.342 4.401l13.388 16.879c2.18-3.062 4.288-6.88 5.95-11.595.167-.475.304-.954.45-1.431l-14.459-9.557z"/><path fill="#0097A7" d="m995.127 412.69-12.625-8.345c-1.01 2.338-2.104 4.498-3.295 6.215l14.459 9.555a38.394 38.394 0 0 0 1.46-7.426zM967.702 419.74l14.933 18.825a39.979 39.979 0 0 0 4.631-5.424l-13.388-16.879c-2.25 1.885-4.17 2.804-6.176 3.477z"/><path fill="#47DAEA" d="M986.878 486.234a2 2 0 0 1-2.107-2.219l2.504-22.355a1.993 1.993 0 0 1 2.21-1.764 2.001 2.001 0 0 1 1.766 2.21l-2.505 22.355a1.999 1.999 0 0 1-1.868 1.773zM969.415 538.213a1.999 1.999 0 0 1-1.904-2.893l10.966-21.879a2 2 0 1 1 3.577 1.793l-10.967 21.879a2.001 2.001 0 0 1-1.672 1.1zM930.315 571.543a1.999 1.999 0 0 1-1.549-3.394l12.711-12.996a2.003 2.003 0 0 1 2.829-.032c.789.773.803 2.04.03 2.83l-12.71 12.995c-.361.37-.832.569-1.31.597zM809.305 388.119a2 2 0 0 1-1.06-3.762l15.784-8.413a2 2 0 1 1 1.881 3.53l-15.783 8.413a2 2 0 0 1-.822.232zM772.618 427.11a2.002 2.002 0 0 1-1.895-2.914l9.97-19.328a2.001 2.001 0 0 1 3.555 1.835l-9.97 19.328c-.335.65-.979 1.04-1.66 1.08zM947.03 461.79a2 2 0 0 1-2.111-2.185l1.971-20.855a2 2 0 1 1 3.982.376l-1.971 20.856a2 2 0 0 1-1.87 1.808zM955.934 502.102a2 2 0 0 1-2-2.675l6.896-19.146a1.997 1.997 0 0 1 2.558-1.203 2.001 2.001 0 0 1 1.205 2.56l-6.895 19.145a2.001 2.001 0 0 1-1.764 1.319zM920.318 500.38a2.002 2.002 0 0 1-1.971-2.749l8.424-20.734a1.999 1.999 0 0 1 2.605-1.1 2.002 2.002 0 0 1 1.102 2.606l-8.425 20.733c-.3.74-.99 1.2-1.735 1.244zM927.104 545.025a2.001 2.001 0 0 1-1.673-3.253l11.517-14.247a2 2 0 0 1 3.11 2.515l-11.516 14.247a1.992 1.992 0 0 1-1.438.738zM763.757 475.941a2 2 0 0 1-2.077-2.404l4.592-22.09a1.997 1.997 0 0 1 2.364-1.551 1.998 1.998 0 0 1 1.551 2.364l-4.59 22.091a2.002 2.002 0 0 1-1.84 1.59zM798.294 498.271a1.999 1.999 0 0 1-2.117-2.128l1.298-19.687a2 2 0 0 1 3.991.263l-1.298 19.687a2 2 0 0 1-1.874 1.865zM876.286 523.232a2 2 0 0 1-1.675-3.25l13.492-16.781a1.999 1.999 0 1 1 3.117 2.506l-13.493 16.782a1.997 1.997 0 0 1-1.441.743zM833.281 519.855a2 2 0 0 1-2.002-2.664l6.107-17.241a2.001 2.001 0 0 1 3.772 1.336l-6.108 17.24a2 2 0 0 1-1.769 1.329zM804.113 544.378a2 2 0 0 1-2.12-2.034l.322-17.134a2 2 0 0 1 4 .074l-.322 17.136a2 2 0 0 1-1.88 1.958zM775.672 513.343a2 2 0 0 1-2.12-1.993l-.033-19.076a2 2 0 0 1 4-.008l.034 19.077a2 2 0 0 1-1.88 2zM880.794 559.869a2 2 0 0 1-1.654-3.277l12.493-14.98a2.002 2.002 0 0 1 3.074 2.562l-12.494 14.979a1.997 1.997 0 0 1-1.419.716zM931.286 420.791a2 2 0 0 1-1.877-1.041l-8.699-16.02a1.999 1.999 0 1 1 3.515-1.908l8.7 16.018a2 2 0 0 1-1.639 2.951zM838.819 555.956a2 2 0 0 1-1.765-3.131l10.352-15.02a2.001 2.001 0 0 1 3.295 2.27l-10.353 15.02a1.995 1.995 0 0 1-1.53.861z"/><path fill="#0097A7" d="M907.673 585.112c-4.67.275-15.668.657-26.015-.96a1.5 1.5 0 1 1 .463-2.963c12.969 2.026 27.5.782 27.641.77 6.093-.287 14.185-1.965 22.35-4.612a1.5 1.5 0 1 1 .927 2.852c-8.41 2.726-16.808 4.443-23.074 4.753-.121.01-.943.08-2.292.16zM801.73 556.851a1.496 1.496 0 0 1-.89-.229 139.871 139.871 0 0 1-7.086-4.8 1.499 1.499 0 1 1 1.758-2.43 136.029 136.029 0 0 0 6.933 4.696 1.498 1.498 0 0 1-.714 2.764z"/></g><path fill="#8BE5EE" d="M63.031 22.032c-8.269 23.653-43.19 32.964-78.002 20.796-34.811-12.168-56.328-41.207-48.061-64.86 8.268-23.654 43.191-32.964 78.002-20.796C49.781-30.66 71.299-1.621 63.031 22.032z" transform="rotate(-3.378 7848.122 -14324.294)" style="display:block"/><g style="display:block"><path fill="#FFF" d="M815.2 440.732s5.11-1 7.303-3.176c1.37-1.36 3.346-3.59 1.102-8.337-2.525-5.343-5.886-5.415-9.259-4.855-2.138.355-4.961 2.107-4.961 2.107s3.744 11.13 5.815 14.261z"/><path fill="#0097A7" d="M857.053 461.82c-8.631.509-18.676-.694-28.68-5.876-12.581-6.514-17.508-15.929-19.428-22.68-2.084-7.335-1.16-13.132-1.12-13.376a2.502 2.502 0 0 1 2.875-2.058 2.501 2.501 0 0 1 2.059 2.869c-.13.812-2.935 20.01 17.912 30.805 23.625 12.233 48.466-.341 48.714-.47a2.5 2.5 0 0 1 2.306 4.437c-.679.353-10.86 5.535-24.638 6.348z"/></g><path fill="#0097A7" d="M18.636 13.02c-.89 0-1.751-.476-2.202-1.314-.054-.099-5.614-10.191-15.377-14.852-9.783-4.671-19.394-3.288-19.489-3.272a2.51 2.51 0 0 1-2.849-2.092 2.498 2.498 0 0 1 2.084-2.849c.451-.071 11.18-1.661 22.408 3.701C14.479-2.278 20.58 8.862 20.834 9.333a2.5 2.5 0 0 1-2.198 3.687z" transform="rotate(-3.378 7443.066 -14306.394)" style="display:block"/><path fill="#0097A7" d="M-.799 6.687a7.936 7.936 0 0 1-2.776-.488c-1.661-.618-2.938-1.829-3.697-3.504-.977-2.158-.992-4.941-.038-7.445a2.5 2.5 0 0 1 4.672 1.78c-.467 1.228-.499 2.675-.079 3.603.27.594.635.786.886.88 1.833.683 4.328-.718 4.93-2.298A2.499 2.499 0 1 1 7.771.994C6.468 4.418 2.802 6.687-.799 6.687z" transform="rotate(-3.378 7535.023 -14018.888)" style="display:block"/><path fill="#0097A7" d="M-.147 6.631a7.694 7.694 0 0 1-3.728-.976C-7.465 3.686-8.436-.437-6.347-4.849a2.5 2.5 0 1 1 4.519 2.14c-.531 1.122-1.191 3.131.358 3.981.719.394 1.458.46 2.261.201C2.006 1.079 2.94.08 3.327-.735a2.5 2.5 0 1 1 4.517 2.142C6.795 3.62 4.683 5.468 2.332 6.23a8.062 8.062 0 0 1-2.479.401z" transform="rotate(-3.378 7663.747 -14341.717)" style="display:block"/><g style="display:block"><path fill="#F4F4F4" d="m456.355 789.777 1.376-6.453-11.895.13 1.518 6.421c-9.527 2.17-16.592 10.734-16.48 20.902.035 3.285 1.415 3.293 1.995 3.889l38.212-.418c1.22-.315 2.244-.65 2.208-3.936-.112-10.167-7.363-18.575-16.934-20.535z"/><path fill="#FF5252" d="m456.355 789.776 1.376-6.453-11.895.13 1.518 6.421c-9.527 2.17-16.592 10.735-16.48 20.903l42.415-.465c-.112-10.167-7.363-18.576-16.934-20.536z"/><path fill="#FF5252" d="M430.873 810.776c.036 3.285.916 3.308 2.487 4l36.761-.402 1.45-.016c1.592-.95 1.754-.76 1.718-4.047l-42.416.465z"/></g><path fill="#8BE5EE" d="M-237 358.479c-25.139 11.495-48 .072-48 .072l-4.756 29.997 56.498-3.058-3.742-27.011z" transform="rotate(-.059 427203.509 -679767.54)" style="display:block"/></g><g clip-path="url(#bb)" transform="rotate(-.745 704.04 1603.621)" style="display:block"><g opacity=".095" style="display:block"><path stroke-linecap="round" stroke="#0097A7" stroke-width="1.852" d="M-277.5 347.25s1.25 10.5 28.25 11c26.514.491 27.5-10.25 27.5-10.25" fill="none" transform="matrix(1.79549 0 0 1.81189 909.775 178.22)" opacity="1"/></g><g opacity=".235" style="display:block"><path stroke-linecap="round" stroke="#0097A7" stroke-width="2.636" d="M-277.5 347.25s1.25 10.5 28.25 11c26.514.491 27.5-10.25 27.5-10.25" fill="none" transform="matrix(1.25188 0 0 1.25707 774.28 367.874)" opacity="1"/></g></g></g></g></svg>